<svg xmlns="http://www.w3.org/2000/svg" viewBox="0 0 1920 1040"><defs><style>.cls-1{fill:#6d6d6d;}.cls-2{fill:#aaa;}.cls-3{fill:#f2f2f2;}.cls-4{fill:#ccc;}.cls-5{fill:#7c7c7c;}.cls-6{fill:#898989;}.cls-7{fill:#a5a5a5;}.cls-8{fill:#b2b2b2;}.cls-9{fill:#f9f9f9;}.cls-10{fill:#565656;}.cls-11{fill:#1e1e1e;}.cls-12{fill:#e5e5e5;}.cls-13{fill:#fff;}.cls-14{fill:#999;}.cls-15{fill:#828282;}</style></defs><title>vector-bg2</title><g id="Layer_2" data-name="Layer 2"><g id="Layer_1-2" data-name="Layer 1"><polygon class="cls-1" points="48 0 96 0 72 40 48 80 24 40 0 0 48 0"/><polygon class="cls-2" points="144 0 192 0 168 40 144 80 120 40 96 0 144 0"/><polygon class="cls-3" points="240 0 288 0 264 40 240 80 216 40 192 0 240 0"/><polygon class="cls-2" points="336 0 384 0 360 40 336 80 312 40 288 0 336 0"/><polygon class="cls-4" points="432 0 480 0 456 40 432 80 408 40 384 0 432 0"/><polygon class="cls-3" points="528 0 576 0 552 40 528 80 504 40 480 0 528 0"/><polygon class="cls-5" points="624 0 672 0 648 40 624 80 600 40 576 0 624 0"/><polygon class="cls-6" points="720 0 768 0 744 40 720 80 696 40 672 0 720 0"/><polygon class="cls-7" points="816 0 864 0 840 40 816 80 792 40 768 0 816 0"/><polygon class="cls-8" points="912 0 960 0 936 40 912 80 888 40 864 0 912 0"/><polygon class="cls-9" points="96 80 48 80 72 40 96 0 120 40 144 80 96 80"/><polygon class="cls-10" points="192 80 144 80 168 40 192 0 216 40 240 80 192 80"/><polygon class="cls-11" points="288 80 240 80 264 40 288 0 312 40 336 80 288 80"/><polygon class="cls-10" points="384 80 336 80 360 40 384 0 408 40 432 80 384 80"/><polygon class="cls-12" points="480 80 432 80 456 40 480 0 504 40 528 80 480 80"/><polygon class="cls-10" points="576 80 528 80 552 40 576 0 600 40 624 80 576 80"/><polygon class="cls-4" points="672 80 624 80 648 40 672 0 696 40 720 80 672 80"/><polygon class="cls-11" points="768 80 720 80 744 40 768 0 792 40 816 80 768 80"/><polygon class="cls-3" points="864 80 816 80 840 40 864 0 888 40 912 80 864 80"/><polygon class="cls-3" points="0 80 13 80 21 80 48 80 24 40 0 0 0 80"/><polygon class="cls-12" points="48 160 96 160 72 120 48 80 24 120 0 160 48 160"/><polygon class="cls-11" points="144 160 192 160 168 120 144 80 120 120 96 160 144 160"/><polygon class="cls-13" points="240 160 288 160 264 120 240 80 216 120 192 160 240 160"/><polygon class="cls-3" points="336 160 384 160 360 120 336 80 312 120 288 160 336 160"/><polygon class="cls-11" points="432 160 480 160 456 120 432 80 408 120 384 160 432 160"/><polygon class="cls-3" points="528 160 576 160 552 120 528 80 504 120 480 160 528 160"/><polygon class="cls-4" points="624 160 672 160 648 120 624 80 600 120 576 160 624 160"/><polygon class="cls-2" points="720 160 768 160 744 120 720 80 696 120 672 160 720 160"/><polygon class="cls-14" points="816 160 864 160 840 120 816 80 792 120 768 160 816 160"/><polygon class="cls-15" points="912 160 960 160 936 120 912 80 888 120 864 160 912 160"/><polygon class="cls-4" points="96 80 48 80 72 120 96 160 120 120 144 80 96 80"/><polygon class="cls-2" points="192 80 144 80 168 120 192 160 216 120 240 80 192 80"/><polygon class="cls-14" points="288 80 240 80 264 120 288 160 312 120 336 80 288 80"/><polygon class="cls-12" points="384 80 336 80 360 120 384 160 408 120 432 80 384 80"/><polygon class="cls-9" points="480 80 432 80 456 120 480 160 504 120 528 80 480 80"/><polygon class="cls-11" points="576 80 528 80 552 120 576 160 600 120 624 80 576 80"/><polygon class="cls-3" points="672 80 624 80 648 120 672 160 696 120 720 80 672 80"/><polygon class="cls-12" points="768 80 720 80 744 120 768 160 792 120 816 80 768 80"/><polygon class="cls-11" points="864 80 816 80 840 120 864 160 888 120 912 80 864 80"/><polygon class="cls-3" points="0 80 13 80 21 80 48 80 24 120 0 160 0 80"/><polygon class="cls-11" points="1008 160 1056 160 1032 120 1008 80 984 120 960 160 1008 160"/><polygon class="cls-13" points="1104 160 1152 160 1128 120 1104 80 1080 120 1056 160 1104 160"/><polygon class="cls-3" points="1200 160 1248 160 1224 120 1200 80 1176 120 1152 160 1200 160"/><polygon class="cls-11" points="1296 160 1344 160 1320 120 1296 80 1272 120 1248 160 1296 160"/><polygon class="cls-3" points="1392 160 1440 160 1416 120 1392 80 1368 120 1344 160 1392 160"/><polygon class="cls-4" points="1488 160 1536 160 1512 120 1488 80 1464 120 1440 160 1488 160"/><polygon class="cls-2" points="1584 160 1632 160 1608 120 1584 80 1560 120 1536 160 1584 160"/><polygon class="cls-14" points="1680 160 1728 160 1704 120 1680 80 1656 120 1632 160 1680 160"/><polygon class="cls-15" points="1776 160 1824 160 1800 120 1776 80 1752 120 1728 160 1776 160"/><polygon class="cls-4" points="960 80 912 80 936 120 960 160 984 120 1008 80 960 80"/><polygon class="cls-2" points="1056 80 1008 80 1032 120 1056 160 1080 120 1104 80 1056 80"/><polygon class="cls-14" points="1152 80 1104 80 1128 120 1152 160 1176 120 1200 80 1152 80"/><polygon class="cls-12" points="1248 80 1200 80 1224 120 1248 160 1272 120 1296 80 1248 80"/><polygon class="cls-9" points="1344 80 1296 80 1320 120 1344 160 1368 120 1392 80 1344 80"/><polygon class="cls-11" points="1440 80 1392 80 1416 120 1440 160 1464 120 1488 80 1440 80"/><polygon class="cls-3" points="1536 80 1488 80 1512 120 1536 160 1560 120 1584 80 1536 80"/><polygon class="cls-12" points="1632 80 1584 80 1608 120 1632 160 1656 120 1680 80 1632 80"/><polygon class="cls-11" points="1728 80 1680 80 1704 120 1728 160 1752 120 1776 80 1728 80"/><polygon class="cls-4" points="1824 80 1776 80 1800 120 1824 160 1848 120 1872 80 1824 80"/><polygon class="cls-3" points="1872 160 1920 160 1896 120 1872 80 1848 120 1824 160 1872 160"/><polygon class="cls-11" points="1920 80 1907 80 1899 80 1872 80 1896 120 1920 160 1920 80"/><polygon class="cls-2" points="1008 0 1056 0 1032 40 1008 80 984 40 960 0 1008 0"/><polygon class="cls-3" points="1104 0 1152 0 1128 40 1104 80 1080 40 1056 0 1104 0"/><polygon class="cls-2" points="1200 0 1248 0 1224 40 1200 80 1176 40 1152 0 1200 0"/><polygon class="cls-4" points="1296 0 1344 0 1320 40 1296 80 1272 40 1248 0 1296 0"/><polygon class="cls-3" points="1392 0 1440 0 1416 40 1392 80 1368 40 1344 0 1392 0"/><polygon class="cls-5" points="1488 0 1536 0 1512 40 1488 80 1464 40 1440 0 1488 0"/><polygon class="cls-6" points="1584 0 1632 0 1608 40 1584 80 1560 40 1536 0 1584 0"/><polygon class="cls-7" points="1680 0 1728 0 1704 40 1680 80 1656 40 1632 0 1680 0"/><polygon class="cls-8" points="1776 0 1824 0 1800 40 1776 80 1752 40 1728 0 1776 0"/><polygon class="cls-9" points="960 80 912 80 936 40 960 0 984 40 1008 80 960 80"/><polygon class="cls-10" points="1056 80 1008 80 1032 40 1056 0 1080 40 1104 80 1056 80"/><polygon class="cls-11" points="1152 80 1104 80 1128 40 1152 0 1176 40 1200 80 1152 80"/><polygon class="cls-10" points="1248 80 1200 80 1224 40 1248 0 1272 40 1296 80 1248 80"/><polygon class="cls-12" points="1344 80 1296 80 1320 40 1344 0 1368 40 1392 80 1344 80"/><polygon class="cls-10" points="1440 80 1392 80 1416 40 1440 0 1464 40 1488 80 1440 80"/><polygon class="cls-4" points="1536 80 1488 80 1512 40 1536 0 1560 40 1584 80 1536 80"/><polygon class="cls-11" points="1632 80 1584 80 1608 40 1632 0 1656 40 1680 80 1632 80"/><polygon class="cls-3" points="1728 80 1680 80 1704 40 1728 0 1752 40 1776 80 1728 80"/><polygon class="cls-5" points="1872 0 1920 0 1896 40 1872 80 1848 40 1824 0 1872 0"/><polygon class="cls-10" points="1824 80 1776 80 1800 40 1824 0 1848 40 1872 80 1824 80"/><polygon class="cls-3" points="1920 80 1907 80 1899 80 1872 80 1896 40 1920 0 1920 80"/><polygon class="cls-1" points="48 160 96 160 72 200 48 240 24 200 0 160 48 160"/><polygon class="cls-2" points="144 160 192 160 168 200 144 240 120 200 96 160 144 160"/><polygon class="cls-3" points="240 160 288 160 264 200 240 240 216 200 192 160 240 160"/><polygon class="cls-2" points="336 160 384 160 360 200 336 240 312 200 288 160 336 160"/><polygon class="cls-4" points="432 160 480 160 456 200 432 240 408 200 384 160 432 160"/><polygon class="cls-3" points="528 160 576 160 552 200 528 240 504 200 480 160 528 160"/><polygon class="cls-5" points="624 160 672 160 648 200 624 240 600 200 576 160 624 160"/><polygon class="cls-6" points="720 160 768 160 744 200 720 240 696 200 672 160 720 160"/><polygon class="cls-7" points="816 160 864 160 840 200 816 240 792 200 768 160 816 160"/><polygon class="cls-8" points="912 160 960 160 936 200 912 240 888 200 864 160 912 160"/><polygon class="cls-9" points="96 240 48 240 72 200 96 160 120 200 144 240 96 240"/><polygon class="cls-10" points="192 240 144 240 168 200 192 160 216 200 240 240 192 240"/><polygon class="cls-11" points="288 240 240 240 264 200 288 160 312 200 336 240 288 240"/><polygon class="cls-10" points="384 240 336 240 360 200 384 160 408 200 432 240 384 240"/><polygon class="cls-12" points="480 240 432 240 456 200 480 160 504 200 528 240 480 240"/><polygon class="cls-10" points="576 240 528 240 552 200 576 160 600 200 624 240 576 240"/><polygon class="cls-4" points="672 240 624 240 648 200 672 160 696 200 720 240 672 240"/><polygon class="cls-11" points="768 240 720 240 744 200 768 160 792 200 816 240 768 240"/><polygon class="cls-3" points="864 240 816 240 840 200 864 160 888 200 912 240 864 240"/><polygon class="cls-3" points="0 240 13 240 21 240 48 240 24 200 0 160 0 240"/><polygon class="cls-12" points="48 320 96 320 72 280 48 240 24 280 0 320 48 320"/><polygon class="cls-11" points="144 320 192 320 168 280 144 240 120 280 96 320 144 320"/><polygon class="cls-13" points="240 320 288 320 264 280 240 240 216 280 192 320 240 320"/><polygon class="cls-3" points="336 320 384 320 360 280 336 240 312 280 288 320 336 320"/><polygon class="cls-11" points="432 320 480 320 456 280 432 240 408 280 384 320 432 320"/><polygon class="cls-3" points="528 320 576 320 552 280 528 240 504 280 480 320 528 320"/><polygon class="cls-4" points="624 320 672 320 648 280 624 240 600 280 576 320 624 320"/><polygon class="cls-2" points="720 320 768 320 744 280 720 240 696 280 672 320 720 320"/><polygon class="cls-14" points="816 320 864 320 840 280 816 240 792 280 768 320 816 320"/><polygon class="cls-15" points="912 320 960 320 936 280 912 240 888 280 864 320 912 320"/><polygon class="cls-4" points="96 240 48 240 72 280 96 320 120 280 144 240 96 240"/><polygon class="cls-2" points="192 240 144 240 168 280 192 320 216 280 240 240 192 240"/><polygon class="cls-14" points="288 240 240 240 264 280 288 320 312 280 336 240 288 240"/><polygon class="cls-12" points="384 240 336 240 360 280 384 320 408 280 432 240 384 240"/><polygon class="cls-9" points="480 240 432 240 456 280 480 320 504 280 528 240 480 240"/><polygon class="cls-11" points="576 240 528 240 552 280 576 320 600 280 624 240 576 240"/><polygon class="cls-3" points="672 240 624 240 648 280 672 320 696 280 720 240 672 240"/><polygon class="cls-12" points="768 240 720 240 744 280 768 320 792 280 816 240 768 240"/><polygon class="cls-11" points="864 240 816 240 840 280 864 320 888 280 912 240 864 240"/><polygon class="cls-3" points="0 240 13 240 21 240 48 240 24 280 0 320 0 240"/><polygon class="cls-11" points="1008 320 1056 320 1032 280 1008 240 984 280 960 320 1008 320"/><polygon class="cls-13" points="1104 320 1152 320 1128 280 1104 240 1080 280 1056 320 1104 320"/><polygon class="cls-3" points="1200 320 1248 320 1224 280 1200 240 1176 280 1152 320 1200 320"/><polygon class="cls-11" points="1296 320 1344 320 1320 280 1296 240 1272 280 1248 320 1296 320"/><polygon class="cls-3" points="1392 320 1440 320 1416 280 1392 240 1368 280 1344 320 1392 320"/><polygon class="cls-4" points="1488 320 1536 320 1512 280 1488 240 1464 280 1440 320 1488 320"/><polygon class="cls-2" points="1584 320 1632 320 1608 280 1584 240 1560 280 1536 320 1584 320"/><polygon class="cls-14" points="1680 320 1728 320 1704 280 1680 240 1656 280 1632 320 1680 320"/><polygon class="cls-15" points="1776 320 1824 320 1800 280 1776 240 1752 280 1728 320 1776 320"/><polygon class="cls-4" points="960 240 912 240 936 280 960 320 984 280 1008 240 960 240"/><polygon class="cls-2" points="1056 240 1008 240 1032 280 1056 320 1080 280 1104 240 1056 240"/><polygon class="cls-14" points="1152 240 1104 240 1128 280 1152 320 1176 280 1200 240 1152 240"/><polygon class="cls-12" points="1248 240 1200 240 1224 280 1248 320 1272 280 1296 240 1248 240"/><polygon class="cls-9" points="1344 240 1296 240 1320 280 1344 320 1368 280 1392 240 1344 240"/><polygon class="cls-11" points="1440 240 1392 240 1416 280 1440 320 1464 280 1488 240 1440 240"/><polygon class="cls-3" points="1536 240 1488 240 1512 280 1536 320 1560 280 1584 240 1536 240"/><polygon class="cls-12" points="1632 240 1584 240 1608 280 1632 320 1656 280 1680 240 1632 240"/><polygon class="cls-11" points="1728 240 1680 240 1704 280 1728 320 1752 280 1776 240 1728 240"/><polygon class="cls-4" points="1824 240 1776 240 1800 280 1824 320 1848 280 1872 240 1824 240"/><polygon class="cls-3" points="1872 320 1920 320 1896 280 1872 240 1848 280 1824 320 1872 320"/><polygon class="cls-11" points="1920 240 1907 240 1899 240 1872 240 1896 280 1920 320 1920 240"/><polygon class="cls-2" points="1008 160 1056 160 1032 200 1008 240 984 200 960 160 1008 160"/><polygon class="cls-3" points="1104 160 1152 160 1128 200 1104 240 1080 200 1056 160 1104 160"/><polygon class="cls-2" points="1200 160 1248 160 1224 200 1200 240 1176 200 1152 160 1200 160"/><polygon class="cls-4" points="1296 160 1344 160 1320 200 1296 240 1272 200 1248 160 1296 160"/><polygon class="cls-3" points="1392 160 1440 160 1416 200 1392 240 1368 200 1344 160 1392 160"/><polygon class="cls-5" points="1488 160 1536 160 1512 200 1488 240 1464 200 1440 160 1488 160"/><polygon class="cls-6" points="1584 160 1632 160 1608 200 1584 240 1560 200 1536 160 1584 160"/><polygon class="cls-7" points="1680 160 1728 160 1704 200 1680 240 1656 200 1632 160 1680 160"/><polygon class="cls-8" points="1776 160 1824 160 1800 200 1776 240 1752 200 1728 160 1776 160"/><polygon class="cls-9" points="960 240 912 240 936 200 960 160 984 200 1008 240 960 240"/><polygon class="cls-10" points="1056 240 1008 240 1032 200 1056 160 1080 200 1104 240 1056 240"/><polygon class="cls-11" points="1152 240 1104 240 1128 200 1152 160 1176 200 1200 240 1152 240"/><polygon class="cls-10" points="1248 240 1200 240 1224 200 1248 160 1272 200 1296 240 1248 240"/><polygon class="cls-12" points="1344 240 1296 240 1320 200 1344 160 1368 200 1392 240 1344 240"/><polygon class="cls-10" points="1440 240 1392 240 1416 200 1440 160 1464 200 1488 240 1440 240"/><polygon class="cls-4" points="1536 240 1488 240 1512 200 1536 160 1560 200 1584 240 1536 240"/><polygon class="cls-11" points="1632 240 1584 240 1608 200 1632 160 1656 200 1680 240 1632 240"/><polygon class="cls-3" points="1728 240 1680 240 1704 200 1728 160 1752 200 1776 240 1728 240"/><polygon class="cls-5" points="1872 160 1920 160 1896 200 1872 240 1848 200 1824 160 1872 160"/><polygon class="cls-10" points="1824 240 1776 240 1800 200 1824 160 1848 200 1872 240 1824 240"/><polygon class="cls-3" points="1920 240 1907 240 1899 240 1872 240 1896 200 1920 160 1920 240"/><polygon class="cls-1" points="48 320 96 320 72 360 48 400 24 360 0 320 48 320"/><polygon class="cls-2" points="144 320 192 320 168 360 144 400 120 360 96 320 144 320"/><polygon class="cls-3" points="240 320 288 320 264 360 240 400 216 360 192 320 240 320"/><polygon class="cls-2" points="336 320 384 320 360 360 336 400 312 360 288 320 336 320"/><polygon class="cls-4" points="432 320 480 320 456 360 432 400 408 360 384 320 432 320"/><polygon class="cls-3" points="528 320 576 320 552 360 528 400 504 360 480 320 528 320"/><polygon class="cls-5" points="624 320 672 320 648 360 624 400 600 360 576 320 624 320"/><polygon class="cls-6" points="720 320 768 320 744 360 720 400 696 360 672 320 720 320"/><polygon class="cls-7" points="816 320 864 320 840 360 816 400 792 360 768 320 816 320"/><polygon class="cls-8" points="912 320 960 320 936 360 912 400 888 360 864 320 912 320"/><polygon class="cls-9" points="96 400 48 400 72 360 96 320 120 360 144 400 96 400"/><polygon class="cls-10" points="192 400 144 400 168 360 192 320 216 360 240 400 192 400"/><polygon class="cls-11" points="288 400 240 400 264 360 288 320 312 360 336 400 288 400"/><polygon class="cls-10" points="384 400 336 400 360 360 384 320 408 360 432 400 384 400"/><polygon class="cls-12" points="480 400 432 400 456 360 480 320 504 360 528 400 480 400"/><polygon class="cls-10" points="576 400 528 400 552 360 576 320 600 360 624 400 576 400"/><polygon class="cls-4" points="672 400 624 400 648 360 672 320 696 360 720 400 672 400"/><polygon class="cls-11" points="768 400 720 400 744 360 768 320 792 360 816 400 768 400"/><polygon class="cls-3" points="864 400 816 400 840 360 864 320 888 360 912 400 864 400"/><polygon class="cls-3" points="0 400 13 400 21 400 48 400 24 360 0 320 0 400"/><polygon class="cls-12" points="48 480 96 480 72 440 48 400 24 440 0 480 48 480"/><polygon class="cls-11" points="144 480 192 480 168 440 144 400 120 440 96 480 144 480"/><polygon class="cls-13" points="240 480 288 480 264 440 240 400 216 440 192 480 240 480"/><polygon class="cls-3" points="336 480 384 480 360 440 336 400 312 440 288 480 336 480"/><polygon class="cls-11" points="432 480 480 480 456 440 432 400 408 440 384 480 432 480"/><polygon class="cls-3" points="528 480 576 480 552 440 528 400 504 440 480 480 528 480"/><polygon class="cls-4" points="624 480 672 480 648 440 624 400 600 440 576 480 624 480"/><polygon class="cls-2" points="720 480 768 480 744 440 720 400 696 440 672 480 720 480"/><polygon class="cls-14" points="816 480 864 480 840 440 816 400 792 440 768 480 816 480"/><polygon class="cls-15" points="912 480 960 480 936 440 912 400 888 440 864 480 912 480"/><polygon class="cls-4" points="96 400 48 400 72 440 96 480 120 440 144 400 96 400"/><polygon class="cls-2" points="192 400 144 400 168 440 192 480 216 440 240 400 192 400"/><polygon class="cls-14" points="288 400 240 400 264 440 288 480 312 440 336 400 288 400"/><polygon class="cls-12" points="384 400 336 400 360 440 384 480 408 440 432 400 384 400"/><polygon class="cls-9" points="480 400 432 400 456 440 480 480 504 440 528 400 480 400"/><polygon class="cls-11" points="576 400 528 400 552 440 576 480 600 440 624 400 576 400"/><polygon class="cls-3" points="672 400 624 400 648 440 672 480 696 440 720 400 672 400"/><polygon class="cls-12" points="768 400 720 400 744 440 768 480 792 440 816 400 768 400"/><polygon class="cls-11" points="864 400 816 400 840 440 864 480 888 440 912 400 864 400"/><polygon class="cls-3" points="0 400 13 400 21 400 48 400 24 440 0 480 0 400"/><polygon class="cls-11" points="1008 480 1056 480 1032 440 1008 400 984 440 960 480 1008 480"/><polygon class="cls-13" points="1104 480 1152 480 1128 440 1104 400 1080 440 1056 480 1104 480"/><polygon class="cls-3" points="1200 480 1248 480 1224 440 1200 400 1176 440 1152 480 1200 480"/><polygon class="cls-11" points="1296 480 1344 480 1320 440 1296 400 1272 440 1248 480 1296 480"/><polygon class="cls-3" points="1392 480 1440 480 1416 440 1392 400 1368 440 1344 480 1392 480"/><polygon class="cls-4" points="1488 480 1536 480 1512 440 1488 400 1464 440 1440 480 1488 480"/><polygon class="cls-2" points="1584 480 1632 480 1608 440 1584 400 1560 440 1536 480 1584 480"/><polygon class="cls-14" points="1680 480 1728 480 1704 440 1680 400 1656 440 1632 480 1680 480"/><polygon class="cls-15" points="1776 480 1824 480 1800 440 1776 400 1752 440 1728 480 1776 480"/><polygon class="cls-4" points="960 400 912 400 936 440 960 480 984 440 1008 400 960 400"/><polygon class="cls-2" points="1056 400 1008 400 1032 440 1056 480 1080 440 1104 400 1056 400"/><polygon class="cls-14" points="1152 400 1104 400 1128 440 1152 480 1176 440 1200 400 1152 400"/><polygon class="cls-12" points="1248 400 1200 400 1224 440 1248 480 1272 440 1296 400 1248 400"/><polygon class="cls-9" points="1344 400 1296 400 1320 440 1344 480 1368 440 1392 400 1344 400"/><polygon class="cls-11" points="1440 400 1392 400 1416 440 1440 480 1464 440 1488 400 1440 400"/><polygon class="cls-3" points="1536 400 1488 400 1512 440 1536 480 1560 440 1584 400 1536 400"/><polygon class="cls-12" points="1632 400 1584 400 1608 440 1632 480 1656 440 1680 400 1632 400"/><polygon class="cls-11" points="1728 400 1680 400 1704 440 1728 480 1752 440 1776 400 1728 400"/><polygon class="cls-4" points="1824 400 1776 400 1800 440 1824 480 1848 440 1872 400 1824 400"/><polygon class="cls-3" points="1872 480 1920 480 1896 440 1872 400 1848 440 1824 480 1872 480"/><polygon class="cls-11" points="1920 400 1907 400 1899 400 1872 400 1896 440 1920 480 1920 400"/><polygon class="cls-2" points="1008 320 1056 320 1032 360 1008 400 984 360 960 320 1008 320"/><polygon class="cls-3" points="1104 320 1152 320 1128 360 1104 400 1080 360 1056 320 1104 320"/><polygon class="cls-2" points="1200 320 1248 320 1224 360 1200 400 1176 360 1152 320 1200 320"/><polygon class="cls-4" points="1296 320 1344 320 1320 360 1296 400 1272 360 1248 320 1296 320"/><polygon class="cls-3" points="1392 320 1440 320 1416 360 1392 400 1368 360 1344 320 1392 320"/><polygon class="cls-5" points="1488 320 1536 320 1512 360 1488 400 1464 360 1440 320 1488 320"/><polygon class="cls-6" points="1584 320 1632 320 1608 360 1584 400 1560 360 1536 320 1584 320"/><polygon class="cls-7" points="1680 320 1728 320 1704 360 1680 400 1656 360 1632 320 1680 320"/><polygon class="cls-8" points="1776 320 1824 320 1800 360 1776 400 1752 360 1728 320 1776 320"/><polygon class="cls-9" points="960 400 912 400 936 360 960 320 984 360 1008 400 960 400"/><polygon class="cls-10" points="1056 400 1008 400 1032 360 1056 320 1080 360 1104 400 1056 400"/><polygon class="cls-11" points="1152 400 1104 400 1128 360 1152 320 1176 360 1200 400 1152 400"/><polygon class="cls-10" points="1248 400 1200 400 1224 360 1248 320 1272 360 1296 400 1248 400"/><polygon class="cls-12" points="1344 400 1296 400 1320 360 1344 320 1368 360 1392 400 1344 400"/><polygon class="cls-10" points="1440 400 1392 400 1416 360 1440 320 1464 360 1488 400 1440 400"/><polygon class="cls-4" points="1536 400 1488 400 1512 360 1536 320 1560 360 1584 400 1536 400"/><polygon class="cls-11" points="1632 400 1584 400 1608 360 1632 320 1656 360 1680 400 1632 400"/><polygon class="cls-3" points="1728 400 1680 400 1704 360 1728 320 1752 360 1776 400 1728 400"/><polygon class="cls-5" points="1872 320 1920 320 1896 360 1872 400 1848 360 1824 320 1872 320"/><polygon class="cls-10" points="1824 400 1776 400 1800 360 1824 320 1848 360 1872 400 1824 400"/><polygon class="cls-3" points="1920 400 1907 400 1899 400 1872 400 1896 360 1920 320 1920 400"/><polygon class="cls-1" points="48 480 96 480 72 520 48 560 24 520 0 480 48 480"/><polygon class="cls-2" points="144 480 192 480 168 520 144 560 120 520 96 480 144 480"/><polygon class="cls-3" points="240 480 288 480 264 520 240 560 216 520 192 480 240 480"/><polygon class="cls-2" points="336 480 384 480 360 520 336 560 312 520 288 480 336 480"/><polygon class="cls-4" points="432 480 480 480 456 520 432 560 408 520 384 480 432 480"/><polygon class="cls-3" points="528 480 576 480 552 520 528 560 504 520 480 480 528 480"/><polygon class="cls-5" points="624 480 672 480 648 520 624 560 600 520 576 480 624 480"/><polygon class="cls-6" points="720 480 768 480 744 520 720 560 696 520 672 480 720 480"/><polygon class="cls-7" points="816 480 864 480 840 520 816 560 792 520 768 480 816 480"/><polygon class="cls-8" points="912 480 960 480 936 520 912 560 888 520 864 480 912 480"/><polygon class="cls-9" points="96 560 48 560 72 520 96 480 120 520 144 560 96 560"/><polygon class="cls-10" points="192 560 144 560 168 520 192 480 216 520 240 560 192 560"/><polygon class="cls-11" points="288 560 240 560 264 520 288 480 312 520 336 560 288 560"/><polygon class="cls-10" points="384 560 336 560 360 520 384 480 408 520 432 560 384 560"/><polygon class="cls-12" points="480 560 432 560 456 520 480 480 504 520 528 560 480 560"/><polygon class="cls-10" points="576 560 528 560 552 520 576 480 600 520 624 560 576 560"/><polygon class="cls-4" points="672 560 624 560 648 520 672 480 696 520 720 560 672 560"/><polygon class="cls-11" points="768 560 720 560 744 520 768 480 792 520 816 560 768 560"/><polygon class="cls-3" points="864 560 816 560 840 520 864 480 888 520 912 560 864 560"/><polygon class="cls-3" points="0 560 13 560 21 560 48 560 24 520 0 480 0 560"/><polygon class="cls-12" points="48 640 96 640 72 600 48 560 24 600 0 640 48 640"/><polygon class="cls-11" points="144 640 192 640 168 600 144 560 120 600 96 640 144 640"/><polygon class="cls-13" points="240 640 288 640 264 600 240 560 216 600 192 640 240 640"/><polygon class="cls-3" points="336 640 384 640 360 600 336 560 312 600 288 640 336 640"/><polygon class="cls-11" points="432 640 480 640 456 600 432 560 408 600 384 640 432 640"/><polygon class="cls-3" points="528 640 576 640 552 600 528 560 504 600 480 640 528 640"/><polygon class="cls-4" points="624 640 672 640 648 600 624 560 600 600 576 640 624 640"/><polygon class="cls-2" points="720 640 768 640 744 600 720 560 696 600 672 640 720 640"/><polygon class="cls-14" points="816 640 864 640 840 600 816 560 792 600 768 640 816 640"/><polygon class="cls-15" points="912 640 960 640 936 600 912 560 888 600 864 640 912 640"/><polygon class="cls-4" points="96 560 48 560 72 600 96 640 120 600 144 560 96 560"/><polygon class="cls-2" points="192 560 144 560 168 600 192 640 216 600 240 560 192 560"/><polygon class="cls-14" points="288 560 240 560 264 600 288 640 312 600 336 560 288 560"/><polygon class="cls-12" points="384 560 336 560 360 600 384 640 408 600 432 560 384 560"/><polygon class="cls-9" points="480 560 432 560 456 600 480 640 504 600 528 560 480 560"/><polygon class="cls-11" points="576 560 528 560 552 600 576 640 600 600 624 560 576 560"/><polygon class="cls-3" points="672 560 624 560 648 600 672 640 696 600 720 560 672 560"/><polygon class="cls-12" points="768 560 720 560 744 600 768 640 792 600 816 560 768 560"/><polygon class="cls-11" points="864 560 816 560 840 600 864 640 888 600 912 560 864 560"/><polygon class="cls-3" points="0 560 13 560 21 560 48 560 24 600 0 640 0 560"/><polygon class="cls-11" points="1008 640 1056 640 1032 600 1008 560 984 600 960 640 1008 640"/><polygon class="cls-13" points="1104 640 1152 640 1128 600 1104 560 1080 600 1056 640 1104 640"/><polygon class="cls-3" points="1200 640 1248 640 1224 600 1200 560 1176 600 1152 640 1200 640"/><polygon class="cls-11" points="1296 640 1344 640 1320 600 1296 560 1272 600 1248 640 1296 640"/><polygon class="cls-3" points="1392 640 1440 640 1416 600 1392 560 1368 600 1344 640 1392 640"/><polygon class="cls-4" points="1488 640 1536 640 1512 600 1488 560 1464 600 1440 640 1488 640"/><polygon class="cls-2" points="1584 640 1632 640 1608 600 1584 560 1560 600 1536 640 1584 640"/><polygon class="cls-14" points="1680 640 1728 640 1704 600 1680 560 1656 600 1632 640 1680 640"/><polygon class="cls-15" points="1776 640 1824 640 1800 600 1776 560 1752 600 1728 640 1776 640"/><polygon class="cls-4" points="960 560 912 560 936 600 960 640 984 600 1008 560 960 560"/><polygon class="cls-2" points="1056 560 1008 560 1032 600 1056 640 1080 600 1104 560 1056 560"/><polygon class="cls-14" points="1152 560 1104 560 1128 600 1152 640 1176 600 1200 560 1152 560"/><polygon class="cls-12" points="1248 560 1200 560 1224 600 1248 640 1272 600 1296 560 1248 560"/><polygon class="cls-9" points="1344 560 1296 560 1320 600 1344 640 1368 600 1392 560 1344 560"/><polygon class="cls-11" points="1440 560 1392 560 1416 600 1440 640 1464 600 1488 560 1440 560"/><polygon class="cls-3" points="1536 560 1488 560 1512 600 1536 640 1560 600 1584 560 1536 560"/><polygon class="cls-12" points="1632 560 1584 560 1608 600 1632 640 1656 600 1680 560 1632 560"/><polygon class="cls-11" points="1728 560 1680 560 1704 600 1728 640 1752 600 1776 560 1728 560"/><polygon class="cls-4" points="1824 560 1776 560 1800 600 1824 640 1848 600 1872 560 1824 560"/><polygon class="cls-3" points="1872 640 1920 640 1896 600 1872 560 1848 600 1824 640 1872 640"/><polygon class="cls-11" points="1920 560 1907 560 1899 560 1872 560 1896 600 1920 640 1920 560"/><polygon class="cls-2" points="1008 480 1056 480 1032 520 1008 560 984 520 960 480 1008 480"/><polygon class="cls-3" points="1104 480 1152 480 1128 520 1104 560 1080 520 1056 480 1104 480"/><polygon class="cls-2" points="1200 480 1248 480 1224 520 1200 560 1176 520 1152 480 1200 480"/><polygon class="cls-4" points="1296 480 1344 480 1320 520 1296 560 1272 520 1248 480 1296 480"/><polygon class="cls-3" points="1392 480 1440 480 1416 520 1392 560 1368 520 1344 480 1392 480"/><polygon class="cls-5" points="1488 480 1536 480 1512 520 1488 560 1464 520 1440 480 1488 480"/><polygon class="cls-6" points="1584 480 1632 480 1608 520 1584 560 1560 520 1536 480 1584 480"/><polygon class="cls-7" points="1680 480 1728 480 1704 520 1680 560 1656 520 1632 480 1680 480"/><polygon class="cls-8" points="1776 480 1824 480 1800 520 1776 560 1752 520 1728 480 1776 480"/><polygon class="cls-9" points="960 560 912 560 936 520 960 480 984 520 1008 560 960 560"/><polygon class="cls-10" points="1056 560 1008 560 1032 520 1056 480 1080 520 1104 560 1056 560"/><polygon class="cls-11" points="1152 560 1104 560 1128 520 1152 480 1176 520 1200 560 1152 560"/><polygon class="cls-10" points="1248 560 1200 560 1224 520 1248 480 1272 520 1296 560 1248 560"/><polygon class="cls-12" points="1344 560 1296 560 1320 520 1344 480 1368 520 1392 560 1344 560"/><polygon class="cls-10" points="1440 560 1392 560 1416 520 1440 480 1464 520 1488 560 1440 560"/><polygon class="cls-4" points="1536 560 1488 560 1512 520 1536 480 1560 520 1584 560 1536 560"/><polygon class="cls-11" points="1632 560 1584 560 1608 520 1632 480 1656 520 1680 560 1632 560"/><polygon class="cls-3" points="1728 560 1680 560 1704 520 1728 480 1752 520 1776 560 1728 560"/><polygon class="cls-5" points="1872 480 1920 480 1896 520 1872 560 1848 520 1824 480 1872 480"/><polygon class="cls-10" points="1824 560 1776 560 1800 520 1824 480 1848 520 1872 560 1824 560"/><polygon class="cls-3" points="1920 560 1907 560 1899 560 1872 560 1896 520 1920 480 1920 560"/><polygon class="cls-1" points="48 640 96 640 72 680 48 720 24 680 0 640 48 640"/><polygon class="cls-2" points="144 640 192 640 168 680 144 720 120 680 96 640 144 640"/><polygon class="cls-3" points="240 640 288 640 264 680 240 720 216 680 192 640 240 640"/><polygon class="cls-2" points="336 640 384 640 360 680 336 720 312 680 288 640 336 640"/><polygon class="cls-4" points="432 640 480 640 456 680 432 720 408 680 384 640 432 640"/><polygon class="cls-3" points="528 640 576 640 552 680 528 720 504 680 480 640 528 640"/><polygon class="cls-5" points="624 640 672 640 648 680 624 720 600 680 576 640 624 640"/><polygon class="cls-6" points="720 640 768 640 744 680 720 720 696 680 672 640 720 640"/><polygon class="cls-7" points="816 640 864 640 840 680 816 720 792 680 768 640 816 640"/><polygon class="cls-8" points="912 640 960 640 936 680 912 720 888 680 864 640 912 640"/><polygon class="cls-9" points="96 720 48 720 72 680 96 640 120 680 144 720 96 720"/><polygon class="cls-10" points="192 720 144 720 168 680 192 640 216 680 240 720 192 720"/><polygon class="cls-11" points="288 720 240 720 264 680 288 640 312 680 336 720 288 720"/><polygon class="cls-10" points="384 720 336 720 360 680 384 640 408 680 432 720 384 720"/><polygon class="cls-12" points="480 720 432 720 456 680 480 640 504 680 528 720 480 720"/><polygon class="cls-10" points="576 720 528 720 552 680 576 640 600 680 624 720 576 720"/><polygon class="cls-4" points="672 720 624 720 648 680 672 640 696 680 720 720 672 720"/><polygon class="cls-11" points="768 720 720 720 744 680 768 640 792 680 816 720 768 720"/><polygon class="cls-3" points="864 720 816 720 840 680 864 640 888 680 912 720 864 720"/><polygon class="cls-3" points="0 720 13 720 21 720 48 720 24 680 0 640 0 720"/><polygon class="cls-12" points="48 800 96 800 72 760 48 720 24 760 0 800 48 800"/><polygon class="cls-11" points="144 800 192 800 168 760 144 720 120 760 96 800 144 800"/><polygon class="cls-13" points="240 800 288 800 264 760 240 720 216 760 192 800 240 800"/><polygon class="cls-3" points="336 800 384 800 360 760 336 720 312 760 288 800 336 800"/><polygon class="cls-11" points="432 800 480 800 456 760 432 720 408 760 384 800 432 800"/><polygon class="cls-3" points="528 800 576 800 552 760 528 720 504 760 480 800 528 800"/><polygon class="cls-4" points="624 800 672 800 648 760 624 720 600 760 576 800 624 800"/><polygon class="cls-2" points="720 800 768 800 744 760 720 720 696 760 672 800 720 800"/><polygon class="cls-14" points="816 800 864 800 840 760 816 720 792 760 768 800 816 800"/><polygon class="cls-15" points="912 800 960 800 936 760 912 720 888 760 864 800 912 800"/><polygon class="cls-4" points="96 720 48 720 72 760 96 800 120 760 144 720 96 720"/><polygon class="cls-2" points="192 720 144 720 168 760 192 800 216 760 240 720 192 720"/><polygon class="cls-14" points="288 720 240 720 264 760 288 800 312 760 336 720 288 720"/><polygon class="cls-12" points="384 720 336 720 360 760 384 800 408 760 432 720 384 720"/><polygon class="cls-9" points="480 720 432 720 456 760 480 800 504 760 528 720 480 720"/><polygon class="cls-11" points="576 720 528 720 552 760 576 800 600 760 624 720 576 720"/><polygon class="cls-3" points="672 720 624 720 648 760 672 800 696 760 720 720 672 720"/><polygon class="cls-12" points="768 720 720 720 744 760 768 800 792 760 816 720 768 720"/><polygon class="cls-11" points="864 720 816 720 840 760 864 800 888 760 912 720 864 720"/><polygon class="cls-3" points="0 720 13 720 21 720 48 720 24 760 0 800 0 720"/><polygon class="cls-11" points="1008 800 1056 800 1032 760 1008 720 984 760 960 800 1008 800"/><polygon class="cls-13" points="1104 800 1152 800 1128 760 1104 720 1080 760 1056 800 1104 800"/><polygon class="cls-3" points="1200 800 1248 800 1224 760 1200 720 1176 760 1152 800 1200 800"/><polygon class="cls-11" points="1296 800 1344 800 1320 760 1296 720 1272 760 1248 800 1296 800"/><polygon class="cls-3" points="1392 800 1440 800 1416 760 1392 720 1368 760 1344 800 1392 800"/><polygon class="cls-4" points="1488 800 1536 800 1512 760 1488 720 1464 760 1440 800 1488 800"/><polygon class="cls-2" points="1584 800 1632 800 1608 760 1584 720 1560 760 1536 800 1584 800"/><polygon class="cls-14" points="1680 800 1728 800 1704 760 1680 720 1656 760 1632 800 1680 800"/><polygon class="cls-15" points="1776 800 1824 800 1800 760 1776 720 1752 760 1728 800 1776 800"/><polygon class="cls-4" points="960 720 912 720 936 760 960 800 984 760 1008 720 960 720"/><polygon class="cls-2" points="1056 720 1008 720 1032 760 1056 800 1080 760 1104 720 1056 720"/><polygon class="cls-14" points="1152 720 1104 720 1128 760 1152 800 1176 760 1200 720 1152 720"/><polygon class="cls-12" points="1248 720 1200 720 1224 760 1248 800 1272 760 1296 720 1248 720"/><polygon class="cls-9" points="1344 720 1296 720 1320 760 1344 800 1368 760 1392 720 1344 720"/><polygon class="cls-11" points="1440 720 1392 720 1416 760 1440 800 1464 760 1488 720 1440 720"/><polygon class="cls-3" points="1536 720 1488 720 1512 760 1536 800 1560 760 1584 720 1536 720"/><polygon class="cls-12" points="1632 720 1584 720 1608 760 1632 800 1656 760 1680 720 1632 720"/><polygon class="cls-11" points="1728 720 1680 720 1704 760 1728 800 1752 760 1776 720 1728 720"/><polygon class="cls-4" points="1824 720 1776 720 1800 760 1824 800 1848 760 1872 720 1824 720"/><polygon class="cls-3" points="1872 800 1920 800 1896 760 1872 720 1848 760 1824 800 1872 800"/><polygon class="cls-11" points="1920 720 1907 720 1899 720 1872 720 1896 760 1920 800 1920 720"/><polygon class="cls-2" points="1008 640 1056 640 1032 680 1008 720 984 680 960 640 1008 640"/><polygon class="cls-3" points="1104 640 1152 640 1128 680 1104 720 1080 680 1056 640 1104 640"/><polygon class="cls-2" points="1200 640 1248 640 1224 680 1200 720 1176 680 1152 640 1200 640"/><polygon class="cls-4" points="1296 640 1344 640 1320 680 1296 720 1272 680 1248 640 1296 640"/><polygon class="cls-3" points="1392 640 1440 640 1416 680 1392 720 1368 680 1344 640 1392 640"/><polygon class="cls-5" points="1488 640 1536 640 1512 680 1488 720 1464 680 1440 640 1488 640"/><polygon class="cls-6" points="1584 640 1632 640 1608 680 1584 720 1560 680 1536 640 1584 640"/><polygon class="cls-7" points="1680 640 1728 640 1704 680 1680 720 1656 680 1632 640 1680 640"/><polygon class="cls-8" points="1776 640 1824 640 1800 680 1776 720 1752 680 1728 640 1776 640"/><polygon class="cls-9" points="960 720 912 720 936 680 960 640 984 680 1008 720 960 720"/><polygon class="cls-10" points="1056 720 1008 720 1032 680 1056 640 1080 680 1104 720 1056 720"/><polygon class="cls-11" points="1152 720 1104 720 1128 680 1152 640 1176 680 1200 720 1152 720"/><polygon class="cls-10" points="1248 720 1200 720 1224 680 1248 640 1272 680 1296 720 1248 720"/><polygon class="cls-12" points="1344 720 1296 720 1320 680 1344 640 1368 680 1392 720 1344 720"/><polygon class="cls-10" points="1440 720 1392 720 1416 680 1440 640 1464 680 1488 720 1440 720"/><polygon class="cls-4" points="1536 720 1488 720 1512 680 1536 640 1560 680 1584 720 1536 720"/><polygon class="cls-11" points="1632 720 1584 720 1608 680 1632 640 1656 680 1680 720 1632 720"/><polygon class="cls-3" points="1728 720 1680 720 1704 680 1728 640 1752 680 1776 720 1728 720"/><polygon class="cls-5" points="1872 640 1920 640 1896 680 1872 720 1848 680 1824 640 1872 640"/><polygon class="cls-10" points="1824 720 1776 720 1800 680 1824 640 1848 680 1872 720 1824 720"/><polygon class="cls-3" points="1920 720 1907 720 1899 720 1872 720 1896 680 1920 640 1920 720"/><polygon class="cls-1" points="48 800 96 800 72 840 48 880 24 840 0 800 48 800"/><polygon class="cls-2" points="144 800 192 800 168 840 144 880 120 840 96 800 144 800"/><polygon class="cls-3" points="240 800 288 800 264 840 240 880 216 840 192 800 240 800"/><polygon class="cls-2" points="336 800 384 800 360 840 336 880 312 840 288 800 336 800"/><polygon class="cls-4" points="432 800 480 800 456 840 432 880 408 840 384 800 432 800"/><polygon class="cls-3" points="528 800 576 800 552 840 528 880 504 840 480 800 528 800"/><polygon class="cls-5" points="624 800 672 800 648 840 624 880 600 840 576 800 624 800"/><polygon class="cls-6" points="720 800 768 800 744 840 720 880 696 840 672 800 720 800"/><polygon class="cls-7" points="816 800 864 800 840 840 816 880 792 840 768 800 816 800"/><polygon class="cls-8" points="912 800 960 800 936 840 912 880 888 840 864 800 912 800"/><polygon class="cls-9" points="96 880 48 880 72 840 96 800 120 840 144 880 96 880"/><polygon class="cls-10" points="192 880 144 880 168 840 192 800 216 840 240 880 192 880"/><polygon class="cls-11" points="288 880 240 880 264 840 288 800 312 840 336 880 288 880"/><polygon class="cls-10" points="384 880 336 880 360 840 384 800 408 840 432 880 384 880"/><polygon class="cls-12" points="480 880 432 880 456 840 480 800 504 840 528 880 480 880"/><polygon class="cls-10" points="576 880 528 880 552 840 576 800 600 840 624 880 576 880"/><polygon class="cls-4" points="672 880 624 880 648 840 672 800 696 840 720 880 672 880"/><polygon class="cls-11" points="768 880 720 880 744 840 768 800 792 840 816 880 768 880"/><polygon class="cls-3" points="864 880 816 880 840 840 864 800 888 840 912 880 864 880"/><polygon class="cls-3" points="0 880 13 880 21 880 48 880 24 840 0 800 0 880"/><polygon class="cls-12" points="48 960 96 960 72 920 48 880 24 920 0 960 48 960"/><polygon class="cls-11" points="144 960 192 960 168 920 144 880 120 920 96 960 144 960"/><polygon class="cls-13" points="240 960 288 960 264 920 240 880 216 920 192 960 240 960"/><polygon class="cls-3" points="336 960 384 960 360 920 336 880 312 920 288 960 336 960"/><polygon class="cls-11" points="432 960 480 960 456 920 432 880 408 920 384 960 432 960"/><polygon class="cls-3" points="528 960 576 960 552 920 528 880 504 920 480 960 528 960"/><polygon class="cls-4" points="624 960 672 960 648 920 624 880 600 920 576 960 624 960"/><polygon class="cls-2" points="720 960 768 960 744 920 720 880 696 920 672 960 720 960"/><polygon class="cls-14" points="816 960 864 960 840 920 816 880 792 920 768 960 816 960"/><polygon class="cls-15" points="912 960 960 960 936 920 912 880 888 920 864 960 912 960"/><polygon class="cls-4" points="96 880 48 880 72 920 96 960 120 920 144 880 96 880"/><polygon class="cls-2" points="192 880 144 880 168 920 192 960 216 920 240 880 192 880"/><polygon class="cls-14" points="288 880 240 880 264 920 288 960 312 920 336 880 288 880"/><polygon class="cls-12" points="384 880 336 880 360 920 384 960 408 920 432 880 384 880"/><polygon class="cls-9" points="480 880 432 880 456 920 480 960 504 920 528 880 480 880"/><polygon class="cls-11" points="576 880 528 880 552 920 576 960 600 920 624 880 576 880"/><polygon class="cls-3" points="672 880 624 880 648 920 672 960 696 920 720 880 672 880"/><polygon class="cls-12" points="768 880 720 880 744 920 768 960 792 920 816 880 768 880"/><polygon class="cls-11" points="864 880 816 880 840 920 864 960 888 920 912 880 864 880"/><polygon class="cls-3" points="0 880 13 880 21 880 48 880 24 920 0 960 0 880"/><polygon class="cls-11" points="1008 960 1056 960 1032 920 1008 880 984 920 960 960 1008 960"/><polygon class="cls-13" points="1104 960 1152 960 1128 920 1104 880 1080 920 1056 960 1104 960"/><polygon class="cls-3" points="1200 960 1248 960 1224 920 1200 880 1176 920 1152 960 1200 960"/><polygon class="cls-11" points="1296 960 1344 960 1320 920 1296 880 1272 920 1248 960 1296 960"/><polygon class="cls-3" points="1392 960 1440 960 1416 920 1392 880 1368 920 1344 960 1392 960"/><polygon class="cls-4" points="1488 960 1536 960 1512 920 1488 880 1464 920 1440 960 1488 960"/><polygon class="cls-2" points="1584 960 1632 960 1608 920 1584 880 1560 920 1536 960 1584 960"/><polygon class="cls-14" points="1680 960 1728 960 1704 920 1680 880 1656 920 1632 960 1680 960"/><polygon class="cls-15" points="1776 960 1824 960 1800 920 1776 880 1752 920 1728 960 1776 960"/><polygon class="cls-4" points="960 880 912 880 936 920 960 960 984 920 1008 880 960 880"/><polygon class="cls-2" points="1056 880 1008 880 1032 920 1056 960 1080 920 1104 880 1056 880"/><polygon class="cls-14" points="1152 880 1104 880 1128 920 1152 960 1176 920 1200 880 1152 880"/><polygon class="cls-12" points="1248 880 1200 880 1224 920 1248 960 1272 920 1296 880 1248 880"/><polygon class="cls-9" points="1344 880 1296 880 1320 920 1344 960 1368 920 1392 880 1344 880"/><polygon class="cls-11" points="1440 880 1392 880 1416 920 1440 960 1464 920 1488 880 1440 880"/><polygon class="cls-3" points="1536 880 1488 880 1512 920 1536 960 1560 920 1584 880 1536 880"/><polygon class="cls-12" points="1632 880 1584 880 1608 920 1632 960 1656 920 1680 880 1632 880"/><polygon class="cls-11" points="1728 880 1680 880 1704 920 1728 960 1752 920 1776 880 1728 880"/><polygon class="cls-4" points="1824 880 1776 880 1800 920 1824 960 1848 920 1872 880 1824 880"/><polygon class="cls-3" points="1872 960 1920 960 1896 920 1872 880 1848 920 1824 960 1872 960"/><polygon class="cls-11" points="1920 880 1907 880 1899 880 1872 880 1896 920 1920 960 1920 880"/><polygon class="cls-2" points="1008 800 1056 800 1032 840 1008 880 984 840 960 800 1008 800"/><polygon class="cls-3" points="1104 800 1152 800 1128 840 1104 880 1080 840 1056 800 1104 800"/><polygon class="cls-2" points="1200 800 1248 800 1224 840 1200 880 1176 840 1152 800 1200 800"/><polygon class="cls-4" points="1296 800 1344 800 1320 840 1296 880 1272 840 1248 800 1296 800"/><polygon class="cls-3" points="1392 800 1440 800 1416 840 1392 880 1368 840 1344 800 1392 800"/><polygon class="cls-5" points="1488 800 1536 800 1512 840 1488 880 1464 840 1440 800 1488 800"/><polygon class="cls-6" points="1584 800 1632 800 1608 840 1584 880 1560 840 1536 800 1584 800"/><polygon class="cls-7" points="1680 800 1728 800 1704 840 1680 880 1656 840 1632 800 1680 800"/><polygon class="cls-8" points="1776 800 1824 800 1800 840 1776 880 1752 840 1728 800 1776 800"/><polygon class="cls-9" points="960 880 912 880 936 840 960 800 984 840 1008 880 960 880"/><polygon class="cls-10" points="1056 880 1008 880 1032 840 1056 800 1080 840 1104 880 1056 880"/><polygon class="cls-11" points="1152 880 1104 880 1128 840 1152 800 1176 840 1200 880 1152 880"/><polygon class="cls-10" points="1248 880 1200 880 1224 840 1248 800 1272 840 1296 880 1248 880"/><polygon class="cls-12" points="1344 880 1296 880 1320 840 1344 800 1368 840 1392 880 1344 880"/><polygon class="cls-10" points="1440 880 1392 880 1416 840 1440 800 1464 840 1488 880 1440 880"/><polygon class="cls-4" points="1536 880 1488 880 1512 840 1536 800 1560 840 1584 880 1536 880"/><polygon class="cls-11" points="1632 880 1584 880 1608 840 1632 800 1656 840 1680 880 1632 880"/><polygon class="cls-3" points="1728 880 1680 880 1704 840 1728 800 1752 840 1776 880 1728 880"/><polygon class="cls-5" points="1872 800 1920 800 1896 840 1872 880 1848 840 1824 800 1872 800"/><polygon class="cls-10" points="1824 880 1776 880 1800 840 1824 800 1848 840 1872 880 1824 880"/><polygon class="cls-3" points="1920 880 1907 880 1899 880 1872 880 1896 840 1920 800 1920 880"/><polygon class="cls-1" points="48 960 96 960 72 1000 48 1040 24 1000 0 960 48 960"/><polygon class="cls-2" points="144 960 192 960 168 1000 144 1040 120 1000 96 960 144 960"/><polygon class="cls-3" points="240 960 288 960 264 1000 240 1040 216 1000 192 960 240 960"/><polygon class="cls-2" points="336 960 384 960 360 1000 336 1040 312 1000 288 960 336 960"/><polygon class="cls-4" points="432 960 480 960 456 1000 432 1040 408 1000 384 960 432 960"/><polygon class="cls-3" points="528 960 576 960 552 1000 528 1040 504 1000 480 960 528 960"/><polygon class="cls-5" points="624 960 672 960 648 1000 624 1040 600 1000 576 960 624 960"/><polygon class="cls-6" points="720 960 768 960 744 1000 720 1040 696 1000 672 960 720 960"/><polygon class="cls-7" points="816 960 864 960 840 1000 816 1040 792 1000 768 960 816 960"/><polygon class="cls-8" points="912 960 960 960 936 1000 912 1040 888 1000 864 960 912 960"/><polygon class="cls-9" points="96 1040 48 1040 72 1000 96 960 120 1000 144 1040 96 1040"/><polygon class="cls-10" points="192 1040 144 1040 168 1000 192 960 216 1000 240 1040 192 1040"/><polygon class="cls-11" points="288 1040 240 1040 264 1000 288 960 312 1000 336 1040 288 1040"/><polygon class="cls-10" points="384 1040 336 1040 360 1000 384 960 408 1000 432 1040 384 1040"/><polygon class="cls-12" points="480 1040 432 1040 456 1000 480 960 504 1000 528 1040 480 1040"/><polygon class="cls-10" points="576 1040 528 1040 552 1000 576 960 600 1000 624 1040 576 1040"/><polygon class="cls-4" points="672 1040 624 1040 648 1000 672 960 696 1000 720 1040 672 1040"/><polygon class="cls-11" points="768 1040 720 1040 744 1000 768 960 792 1000 816 1040 768 1040"/><polygon class="cls-3" points="864 1040 816 1040 840 1000 864 960 888 1000 912 1040 864 1040"/><polygon class="cls-3" points="0 1040 13 1040 21 1040 48 1040 24 1000 0 960 0 1040"/><polygon class="cls-2" points="1008 960 1056 960 1032 1000 1008 1040 984 1000 960 960 1008 960"/><polygon class="cls-3" points="1104 960 1152 960 1128 1000 1104 1040 1080 1000 1056 960 1104 960"/><polygon class="cls-2" points="1200 960 1248 960 1224 1000 1200 1040 1176 1000 1152 960 1200 960"/><polygon class="cls-4" points="1296 960 1344 960 1320 1000 1296 1040 1272 1000 1248 960 1296 960"/><polygon class="cls-3" points="1392 960 1440 960 1416 1000 1392 1040 1368 1000 1344 960 1392 960"/><polygon class="cls-5" points="1488 960 1536 960 1512 1000 1488 1040 1464 1000 1440 960 1488 960"/><polygon class="cls-6" points="1584 960 1632 960 1608 1000 1584 1040 1560 1000 1536 960 1584 960"/><polygon class="cls-7" points="1680 960 1728 960 1704 1000 1680 1040 1656 1000 1632 960 1680 960"/><polygon class="cls-8" points="1776 960 1824 960 1800 1000 1776 1040 1752 1000 1728 960 1776 960"/><polygon class="cls-9" points="960 1040 912 1040 936 1000 960 960 984 1000 1008 1040 960 1040"/><polygon class="cls-10" points="1056 1040 1008 1040 1032 1000 1056 960 1080 1000 1104 1040 1056 1040"/><polygon class="cls-11" points="1152 1040 1104 1040 1128 1000 1152 960 1176 1000 1200 1040 1152 1040"/><polygon class="cls-10" points="1248 1040 1200 1040 1224 1000 1248 960 1272 1000 1296 1040 1248 1040"/><polygon class="cls-12" points="1344 1040 1296 1040 1320 1000 1344 960 1368 1000 1392 1040 1344 1040"/><polygon class="cls-10" points="1440 1040 1392 1040 1416 1000 1440 960 1464 1000 1488 1040 1440 1040"/><polygon class="cls-4" points="1536 1040 1488 1040 1512 1000 1536 960 1560 1000 1584 1040 1536 1040"/><polygon class="cls-11" points="1632 1040 1584 1040 1608 1000 1632 960 1656 1000 1680 1040 1632 1040"/><polygon class="cls-3" points="1728 1040 1680 1040 1704 1000 1728 960 1752 1000 1776 1040 1728 1040"/><polygon class="cls-5" points="1872 960 1920 960 1896 1000 1872 1040 1848 1000 1824 960 1872 960"/><polygon class="cls-10" points="1824 1040 1776 1040 1800 1000 1824 960 1848 1000 1872 1040 1824 1040"/><polygon class="cls-3" points="1920 1040 1907 1040 1899 1040 1872 1040 1896 1000 1920 960 1920 1040"/></g></g></svg>